<?xml version="1.0" encoding="UTF-8" standalone="no"?><!DOCTYPE svg PUBLIC "-//W3C//DTD SVG 1.1//EN" "http://www.w3.org/Graphics/SVG/1.1/DTD/svg11.dtd"><svg width="100%" height="100%" viewBox="0 0 40 60" version="1.1" xmlns="http://www.w3.org/2000/svg" xmlns:xlink="http://www.w3.org/1999/xlink" xml:space="preserve" xmlns:serif="http://www.serif.com/" style="fill-rule:evenodd;clip-rule:evenodd;stroke-linecap:round;stroke-linejoin:round;"><g><g><path d="M29.491,34.305c4.441,1.361 7.658,5.364 7.658,10.092c0,5.848 -4.923,10.589 -10.996,10.589c-6.073,0 -10.996,-4.741 -10.996,-10.589c0,-1.826 0.481,-3.543 1.325,-5.044" style="fill:none;stroke:#fff;stroke-width:3.74px;"/><ellipse cx="25.817" cy="33.979" rx="1.015" ry="0.977" style="fill:none;stroke:#fff;stroke-width:2.81px;"/><path d="M25.817,42.45c-0.816,0 -7.443,-7.167 -8.36,-6.501c-0.915,0.668 6.331,7.64 6.331,8.455c0,0.816 0.92,1.955 2.029,1.955c1.11,0 2.03,-0.886 2.03,-1.955c0,-1.067 -1.213,-1.954 -2.03,-1.954Z" style="fill:#fff;fill-rule:nonzero;stroke:#fff;stroke-width:0.94px;stroke-linecap:butt;stroke-miterlimit:1.41421;"/></g><path d="M11.152,26.276l1.555,-0.144c0.132,0.731 0.383,1.261 0.755,1.591c0.371,0.33 0.848,0.494 1.429,0.494c0.497,0 0.931,-0.114 1.303,-0.341c0.377,-0.228 0.686,-0.53 0.926,-0.908c0.24,-0.383 0.44,-0.899 0.602,-1.546c0.187,-0.751 0.266,-1.526 0.233,-2.3c-0.332,0.524 -0.789,0.956 -1.33,1.258c-0.552,0.316 -1.178,0.481 -1.815,0.476c-1.09,0 -2.013,-0.395 -2.768,-1.186c-0.755,-0.791 -1.133,-1.834 -1.133,-3.128c0,-1.336 0.393,-2.411 1.178,-3.226c0.79,-0.815 1.78,-1.223 2.966,-1.223c0.856,0 1.638,0.231 2.345,0.692c0.713,0.462 1.253,1.12 1.618,1.978c0.372,0.85 0.557,2.085 0.557,3.702c0,1.684 -0.182,3.026 -0.548,4.027c-0.365,0.994 -0.91,1.752 -1.636,2.274c-0.719,0.52 -1.563,0.781 -2.534,0.781c-1.03,0 -1.872,-0.284 -2.525,-0.853c-0.654,-0.576 -1.046,-1.381 -1.178,-2.418Zm6.624,-5.815c0,-0.928 -0.249,-1.666 -0.746,-2.21c-0.492,-0.546 -1.085,-0.819 -1.78,-0.819c-0.719,0 -1.345,0.294 -1.878,0.881c-0.533,0.587 -0.8,1.348 -0.8,2.283c0,0.839 0.252,1.522 0.755,2.05c0.51,0.52 1.135,0.781 1.878,0.781c0.75,0 1.363,-0.26 1.843,-0.782c0.485,-0.527 0.728,-1.255 0.728,-2.184Zm-15.926,-11.099c0,-1.558 0.158,-2.81 0.476,-3.757c0.324,-0.952 0.8,-1.686 1.429,-2.201c0.635,-0.516 1.432,-0.773 2.39,-0.773c0.708,0 1.328,0.143 1.861,0.431c0.533,0.282 0.974,0.692 1.321,1.231c0.348,0.534 0.62,1.187 0.818,1.96c0.198,0.767 0.297,1.803 0.297,3.11c0,1.545 -0.16,2.794 -0.477,3.747c-0.317,0.947 -0.794,1.68 -1.429,2.202c-0.629,0.515 -1.426,0.773 -2.39,0.773c-1.27,0 -2.268,-0.456 -2.993,-1.366c-0.869,-1.097 -1.303,-2.882 -1.303,-5.357Zm1.662,0c0,2.163 0.252,3.604 0.755,4.323c0.51,0.713 1.136,1.07 1.879,1.07c0.743,0 1.366,-0.36 1.87,-1.079c0.508,-0.719 0.763,-2.157 0.763,-4.314c0,-2.169 -0.255,-3.61 -0.764,-4.323c-0.503,-0.713 -1.132,-1.07 -1.887,-1.07c-0.743,0 -1.336,0.315 -1.78,0.944c-0.557,0.803 -0.836,2.286 -0.836,4.45l0,-0.001Z" style="fill:#fff;fill-rule:nonzero;stroke:#fff;stroke-width:1px;stroke-linecap:butt;stroke-miterlimit:1.41421;"/></g></svg>