<?xml version="1.0" encoding="UTF-8" standalone="no"?><!DOCTYPE svg PUBLIC "-//W3C//DTD SVG 1.1//EN" "http://www.w3.org/Graphics/SVG/1.1/DTD/svg11.dtd"><svg width="100%" height="100%" viewBox="0 0 40 60" version="1.1" xmlns="http://www.w3.org/2000/svg" xmlns:xlink="http://www.w3.org/1999/xlink" xml:space="preserve" xmlns:serif="http://www.serif.com/" style="fill-rule:evenodd;clip-rule:evenodd;stroke-linecap:round;stroke-linejoin:round;"><g><g><path d="M29.491,34.305c4.441,1.361 7.658,5.364 7.658,10.092c0,5.848 -4.923,10.589 -10.996,10.589c-6.073,0 -10.996,-4.741 -10.996,-10.589c0,-1.826 0.481,-3.543 1.325,-5.044" style="fill:none;stroke:#fff;stroke-width:3.74px;"/><ellipse cx="25.817" cy="33.979" rx="1.015" ry="0.977" style="fill:none;stroke:#fff;stroke-width:2.81px;"/><path d="M25.817,42.45c-0.816,0 -7.443,-7.167 -8.36,-6.501c-0.915,0.668 6.331,7.64 6.331,8.455c0,0.816 0.92,1.955 2.029,1.955c1.11,0 2.03,-0.886 2.03,-1.955c0,-1.067 -1.213,-1.954 -2.03,-1.954Z" style="fill:#fff;fill-rule:nonzero;stroke:#fff;stroke-width:0.94px;stroke-linecap:butt;stroke-miterlimit:1.41421;"/></g><path d="M11.27,28.15l6.733,-8.143l-6.235,0l0,-1.707l8.8,0l0,1.559l-6.69,8.09l6.892,0l0,1.707l-9.5,0l0,-1.506Zm-6.693,-16.57c0,0.551 0.201,0.986 0.604,1.304c0.403,0.319 0.881,0.478 1.432,0.478c0.671,0 1.321,-0.156 1.95,-0.467c1.06,-0.516 1.59,-1.361 1.59,-2.534l0,-1.537c-0.233,0.148 -0.533,0.271 -0.9,0.37c-0.368,0.1 -0.729,0.171 -1.082,0.213l-1.155,0.148c-0.693,0.092 -1.213,0.237 -1.56,0.435c-0.587,0.332 -0.88,0.862 -0.88,1.59l0.001,0Zm4.623,-3.859c0.438,-0.057 0.731,-0.24 0.88,-0.551c0.085,-0.17 0.127,-0.414 0.127,-0.732c0,-0.65 -0.233,-1.12 -0.7,-1.41c-0.459,-0.297 -1.12,-0.445 -1.983,-0.445c-0.997,0 -1.703,0.268 -2.12,0.805c-0.233,0.297 -0.385,0.739 -0.456,1.326l-1.781,0c0.035,-1.4 0.488,-2.372 1.357,-2.916c0.877,-0.551 1.891,-0.827 3.043,-0.827c1.336,0 2.421,0.254 3.255,0.763c0.827,0.509 1.24,1.301 1.24,2.375l0,6.542c0,0.198 0.039,0.357 0.117,0.477c0.085,0.12 0.258,0.18 0.52,0.18c0.085,0 0.18,-0.003 0.286,-0.01c0.106,-0.014 0.219,-0.032 0.34,-0.053l0,1.41c-0.297,0.085 -0.524,0.138 -0.68,0.16c-0.155,0.021 -0.367,0.031 -0.636,0.031c-0.657,0 -1.134,-0.233 -1.43,-0.7c-0.156,-0.247 -0.266,-0.597 -0.33,-1.05c-0.389,0.509 -0.947,0.951 -1.675,1.326c-0.728,0.375 -1.53,0.562 -2.407,0.562c-1.053,0 -1.916,-0.318 -2.587,-0.954c-0.664,-0.643 -0.996,-1.446 -0.996,-2.407c0,-1.053 0.329,-1.87 0.986,-2.45c0.657,-0.579 1.52,-0.936 2.587,-1.07l3.043,-0.382Z" style="fill:#fff;fill-rule:nonzero;stroke:#fff;stroke-width:1px;stroke-linecap:butt;stroke-miterlimit:1.41421;"/></g></svg>